<svg width="1200" height="415" viewBox="0 0 1200 415" fill="none" xmlns="http://www.w3.org/2000/svg">
<path d="M0 1C192.151 169 701.163 404.2 1200 1" stroke="white" stroke-dasharray="12 12"/>
<g clip-path="url(#clip0_5125_2906)">
<path d="M217.826 131.201L232.343 137.928C234.268 138.82 235.76 140.44 236.491 142.432C237.221 144.424 237.13 146.625 236.238 148.55C235.346 150.475 233.726 151.967 231.734 152.697C229.742 153.428 227.541 153.337 225.616 152.445L211.099 145.718L184.81 164.396L173.922 159.351L192.953 137.309L178.436 130.582L167.814 134.477L156.926 129.432L170.911 118.279L170.379 100.398L181.267 105.443L185.162 116.065L199.68 122.792L204.193 94.0236L215.081 99.0688L217.826 131.201Z" fill="white"/>
</g>
<path d="M195.496 248.815C194.398 248.815 193.399 248.563 192.499 248.059C191.599 247.546 190.821 246.84 190.164 245.94C189.516 245.04 189.016 244 188.665 242.821C188.314 241.633 188.139 240.364 188.139 239.014C188.139 237.664 188.314 236.4 188.665 235.221C189.016 234.033 189.516 232.989 190.164 232.089C190.821 231.189 191.599 230.487 192.499 229.983C193.399 229.47 194.398 229.213 195.496 229.213C196.594 229.213 197.593 229.47 198.493 229.983C199.393 230.487 200.163 231.189 200.802 232.089C201.45 232.989 201.949 234.033 202.3 235.221C202.66 236.4 202.84 237.664 202.84 239.014C202.84 240.364 202.66 241.633 202.3 242.821C201.949 244 201.45 245.04 200.802 245.94C200.163 246.84 199.393 247.546 198.493 248.059C197.593 248.563 196.594 248.815 195.496 248.815ZM195.496 245.521C196.459 245.521 197.256 245.215 197.886 244.603C198.516 243.991 198.984 243.19 199.29 242.2C199.596 241.21 199.749 240.148 199.749 239.014C199.749 237.817 199.587 236.728 199.263 235.747C198.939 234.757 198.462 233.97 197.832 233.385C197.202 232.8 196.423 232.507 195.496 232.507C194.767 232.507 194.133 232.687 193.593 233.047C193.062 233.398 192.621 233.88 192.27 234.492C191.919 235.104 191.658 235.801 191.487 236.584C191.316 237.358 191.23 238.168 191.23 239.014C191.23 240.139 191.383 241.201 191.689 242.2C192.004 243.19 192.477 243.991 193.107 244.603C193.746 245.215 194.542 245.521 195.496 245.521ZM207.106 248.464V232.858H204.73L205.621 229.564H210.4V248.464H207.106Z" fill="white"/>
<path d="M165.331 301.815C164.053 301.815 162.851 301.563 161.726 301.059C160.601 300.546 159.611 299.84 158.756 298.94C157.91 298.04 157.244 297 156.758 295.821C156.281 294.633 156.043 293.364 156.043 292.014C156.043 290.655 156.281 289.386 156.758 288.207C157.244 287.019 157.91 285.98 158.756 285.089C159.611 284.189 160.601 283.487 161.726 282.983C162.851 282.47 164.053 282.213 165.331 282.213C166.861 282.213 168.269 282.569 169.556 283.28C170.843 283.982 171.91 284.922 172.756 286.101L169.813 287.681C169.282 287.024 168.62 286.497 167.828 286.101C167.045 285.705 166.213 285.507 165.331 285.507C164.503 285.507 163.724 285.678 162.995 286.02C162.266 286.353 161.627 286.821 161.078 287.424C160.529 288.018 160.102 288.711 159.796 289.503C159.49 290.286 159.337 291.123 159.337 292.014C159.337 292.914 159.49 293.756 159.796 294.539C160.111 295.322 160.543 296.015 161.092 296.618C161.641 297.212 162.275 297.68 162.995 298.022C163.724 298.355 164.503 298.521 165.331 298.521C166.231 298.521 167.068 298.323 167.842 297.927C168.625 297.522 169.282 296.991 169.813 296.334L172.756 297.927C171.91 299.097 170.843 300.038 169.556 300.749C168.269 301.46 166.861 301.815 165.331 301.815ZM175.212 301.464L175.198 287.964H178.492L178.506 289.166C178.965 288.68 179.514 288.297 180.153 288.018C180.792 287.73 181.48 287.586 182.218 287.586C182.713 287.586 183.208 287.658 183.703 287.802L182.407 291.123C182.065 290.988 181.723 290.921 181.381 290.921C180.85 290.921 180.364 291.051 179.923 291.312C179.491 291.564 179.145 291.911 178.884 292.352C178.632 292.784 178.506 293.265 178.506 293.796V301.464H175.212ZM190.525 301.815C189.283 301.815 188.149 301.496 187.123 300.857C186.106 300.218 185.291 299.358 184.679 298.278C184.076 297.198 183.775 296.006 183.775 294.701C183.775 293.72 183.95 292.802 184.301 291.947C184.652 291.083 185.134 290.327 185.746 289.679C186.367 289.022 187.087 288.509 187.906 288.14C188.725 287.771 189.598 287.586 190.525 287.586C191.578 287.586 192.541 287.811 193.414 288.261C194.296 288.702 195.043 289.31 195.655 290.084C196.267 290.858 196.712 291.74 196.991 292.73C197.27 293.72 197.333 294.755 197.18 295.835H187.312C187.438 296.339 187.645 296.793 187.933 297.198C188.221 297.594 188.585 297.914 189.026 298.157C189.467 298.391 189.967 298.512 190.525 298.521C191.101 298.53 191.623 298.395 192.091 298.116C192.568 297.828 192.964 297.441 193.279 296.955L196.64 297.738C196.091 298.935 195.272 299.916 194.183 300.681C193.094 301.437 191.875 301.815 190.525 301.815ZM187.204 293.364H193.846C193.747 292.824 193.535 292.338 193.211 291.906C192.896 291.465 192.505 291.114 192.037 290.853C191.569 290.592 191.065 290.462 190.525 290.462C189.985 290.462 189.485 290.592 189.026 290.853C188.567 291.105 188.176 291.452 187.852 291.893C187.537 292.325 187.321 292.815 187.204 293.364ZM209.609 287.964H212.903V301.464H209.609L209.46 299.79C209.091 300.393 208.601 300.884 207.989 301.262C207.386 301.631 206.67 301.815 205.842 301.815C204.843 301.815 203.907 301.626 203.034 301.248C202.161 300.87 201.392 300.348 200.726 299.682C200.069 299.016 199.551 298.247 199.173 297.374C198.804 296.501 198.62 295.565 198.62 294.566C198.62 293.603 198.795 292.698 199.146 291.852C199.506 291.006 200.006 290.264 200.645 289.625C201.284 288.986 202.022 288.486 202.859 288.126C203.696 287.766 204.596 287.586 205.559 287.586C206.45 287.586 207.246 287.784 207.948 288.18C208.659 288.576 209.262 289.08 209.757 289.692L209.609 287.964ZM205.761 298.643C206.463 298.643 207.084 298.467 207.624 298.116C208.164 297.765 208.587 297.293 208.893 296.699C209.199 296.096 209.352 295.434 209.352 294.714C209.352 293.985 209.199 293.324 208.893 292.73C208.587 292.127 208.16 291.65 207.611 291.299C207.071 290.948 206.454 290.772 205.761 290.772C205.068 290.772 204.434 290.952 203.858 291.312C203.291 291.663 202.836 292.136 202.494 292.73C202.161 293.324 201.995 293.985 201.995 294.714C201.995 295.443 202.166 296.105 202.508 296.699C202.85 297.293 203.304 297.765 203.871 298.116C204.447 298.467 205.077 298.643 205.761 298.643ZM222.829 291.258H220.21V301.464H216.916V291.258H214.918V287.964H216.916V283.725H220.21V287.964H222.829V291.258ZM230.893 301.815C229.651 301.815 228.517 301.496 227.491 300.857C226.474 300.218 225.66 299.358 225.048 298.278C224.445 297.198 224.143 296.006 224.143 294.701C224.143 293.72 224.319 292.802 224.67 291.947C225.021 291.083 225.502 290.327 226.114 289.679C226.735 289.022 227.455 288.509 228.274 288.14C229.093 287.771 229.966 287.586 230.893 287.586C231.946 287.586 232.909 287.811 233.782 288.261C234.664 288.702 235.411 289.31 236.023 290.084C236.635 290.858 237.081 291.74 237.36 292.73C237.639 293.72 237.702 294.755 237.549 295.835H227.68C227.806 296.339 228.013 296.793 228.301 297.198C228.589 297.594 228.954 297.914 229.395 298.157C229.836 298.391 230.335 298.512 230.893 298.521C231.469 298.53 231.991 298.395 232.459 298.116C232.936 297.828 233.332 297.441 233.647 296.955L237.009 297.738C236.46 298.935 235.641 299.916 234.552 300.681C233.463 301.437 232.243 301.815 230.893 301.815ZM227.572 293.364H234.214C234.115 292.824 233.904 292.338 233.58 291.906C233.265 291.465 232.873 291.114 232.405 290.853C231.937 290.592 231.433 290.462 230.893 290.462C230.353 290.462 229.854 290.592 229.395 290.853C228.936 291.105 228.544 291.452 228.22 291.893C227.905 292.325 227.689 292.815 227.572 293.364ZM150.067 333.464V314.564H153.361V333.464H150.067ZM164.254 323.258H161.635V333.464H158.341V323.258H156.343V319.964H158.341V315.725H161.635V319.964H164.254V323.258ZM166.484 319.964H169.778V333.464H166.484V319.964ZM168.158 318.223C167.672 318.223 167.262 318.065 166.929 317.75C166.596 317.426 166.43 317.021 166.43 316.535C166.43 316.058 166.596 315.658 166.929 315.334C167.262 315.01 167.667 314.848 168.144 314.848C168.621 314.848 169.022 315.01 169.346 315.334C169.679 315.658 169.845 316.058 169.845 316.535C169.845 317.021 169.683 317.426 169.359 317.75C169.035 318.065 168.635 318.223 168.158 318.223ZM185.283 324.932V333.464H181.989V325.796C181.989 325.265 181.859 324.784 181.598 324.352C181.337 323.911 180.986 323.564 180.545 323.312C180.113 323.051 179.631 322.921 179.1 322.921C178.569 322.921 178.083 323.051 177.642 323.312C177.21 323.564 176.864 323.911 176.603 324.352C176.351 324.784 176.225 325.265 176.225 325.796V333.464H172.931L172.917 319.964H176.211L176.225 321.166C176.684 320.68 177.233 320.297 177.872 320.018C178.511 319.73 179.199 319.586 179.937 319.586C180.918 319.586 181.814 319.829 182.624 320.315C183.434 320.792 184.077 321.436 184.554 322.246C185.04 323.047 185.283 323.942 185.283 324.932ZM193.649 333.815C192.407 333.815 191.273 333.496 190.247 332.857C189.23 332.218 188.416 331.358 187.804 330.278C187.201 329.198 186.899 328.006 186.899 326.701C186.899 325.72 187.075 324.802 187.426 323.947C187.777 323.083 188.258 322.327 188.87 321.679C189.491 321.022 190.211 320.509 191.03 320.14C191.849 319.771 192.722 319.586 193.649 319.586C194.702 319.586 195.665 319.811 196.538 320.261C197.42 320.702 198.167 321.31 198.779 322.084C199.391 322.858 199.837 323.74 200.116 324.73C200.395 325.72 200.458 326.755 200.305 327.835H190.436C190.562 328.339 190.769 328.793 191.057 329.198C191.345 329.594 191.71 329.914 192.151 330.157C192.592 330.391 193.091 330.512 193.649 330.521C194.225 330.53 194.747 330.395 195.215 330.116C195.692 329.828 196.088 329.441 196.403 328.955L199.765 329.738C199.216 330.935 198.397 331.916 197.308 332.681C196.219 333.437 194.999 333.815 193.649 333.815ZM190.328 325.364H196.97C196.871 324.824 196.66 324.338 196.336 323.906C196.021 323.465 195.629 323.114 195.161 322.853C194.693 322.592 194.189 322.462 193.649 322.462C193.109 322.462 192.61 322.592 192.151 322.853C191.692 323.105 191.3 323.452 190.976 323.893C190.661 324.325 190.445 324.815 190.328 325.364ZM202.515 333.464L202.501 319.964H205.795L205.809 321.166C206.268 320.68 206.817 320.297 207.456 320.018C208.095 319.73 208.783 319.586 209.521 319.586C210.016 319.586 210.511 319.658 211.006 319.802L209.71 323.123C209.368 322.988 209.026 322.921 208.684 322.921C208.153 322.921 207.667 323.051 207.226 323.312C206.794 323.564 206.448 323.911 206.187 324.352C205.935 324.784 205.809 325.265 205.809 325.796V333.464H202.515ZM222.067 319.964H225.361V333.464H222.067L221.919 331.79C221.55 332.393 221.059 332.884 220.447 333.262C219.844 333.631 219.129 333.815 218.301 333.815C217.302 333.815 216.366 333.626 215.493 333.248C214.62 332.87 213.85 332.348 213.184 331.682C212.527 331.016 212.01 330.247 211.632 329.374C211.263 328.501 211.078 327.565 211.078 326.566C211.078 325.603 211.254 324.698 211.605 323.852C211.965 323.006 212.464 322.264 213.103 321.625C213.742 320.986 214.48 320.486 215.317 320.126C216.154 319.766 217.054 319.586 218.017 319.586C218.908 319.586 219.705 319.784 220.407 320.18C221.118 320.576 221.721 321.08 222.216 321.692L222.067 319.964ZM218.22 330.643C218.922 330.643 219.543 330.467 220.083 330.116C220.623 329.765 221.046 329.293 221.352 328.699C221.658 328.096 221.811 327.434 221.811 326.714C221.811 325.985 221.658 325.324 221.352 324.73C221.046 324.127 220.618 323.65 220.069 323.299C219.529 322.948 218.913 322.772 218.22 322.772C217.527 322.772 216.892 322.952 216.316 323.312C215.749 323.663 215.295 324.136 214.953 324.73C214.62 325.324 214.453 325.985 214.453 326.714C214.453 327.443 214.624 328.105 214.966 328.699C215.308 329.293 215.763 329.765 216.33 330.116C216.906 330.467 217.536 330.643 218.22 330.643ZM228.065 333.464L228.051 319.964H231.345L231.359 321.166C231.818 320.68 232.367 320.297 233.006 320.018C233.645 319.73 234.333 319.586 235.071 319.586C235.566 319.586 236.061 319.658 236.556 319.802L235.26 323.123C234.918 322.988 234.576 322.921 234.234 322.921C233.703 322.921 233.217 323.051 232.776 323.312C232.344 323.564 231.998 323.911 231.737 324.352C231.485 324.784 231.359 325.265 231.359 325.796V333.464H228.065ZM247.279 319.964H250.775L243.391 340.214H239.894L242.338 333.464L237.478 319.964H241.082L243.985 328.955L247.279 319.964Z" fill="white"/>
<g clip-path="url(#clip1_5125_2906)">
<path d="M1011.29 117.574L1025.9 111.047C1027.84 110.182 1030.04 110.121 1032.02 110.879C1034 111.637 1035.6 113.151 1036.47 115.088C1037.33 117.025 1037.39 119.227 1036.63 121.209C1035.88 123.19 1034.36 124.79 1032.43 125.655L1017.82 132.183L1014.63 164.274L1003.68 169.169L999.557 140.341L984.949 146.868L980.908 157.436L969.952 162.331L970.729 144.46L956.898 133.115L967.854 128.22L978.422 132.26L993.03 125.733L974.303 103.433L985.26 98.5373L1011.29 117.574Z" fill="white"/>
</g>
<path d="M993.044 232.162C991.946 232.162 990.947 231.91 990.047 231.406C989.147 230.893 988.368 230.187 987.711 229.287C987.063 228.387 986.564 227.347 986.213 226.168C985.862 224.98 985.686 223.711 985.686 222.361C985.686 221.011 985.862 219.747 986.213 218.568C986.564 217.38 987.063 216.336 987.711 215.436C988.368 214.536 989.147 213.834 990.047 213.33C990.947 212.817 991.946 212.56 993.044 212.56C994.142 212.56 995.141 212.817 996.041 213.33C996.941 213.834 997.71 214.536 998.349 215.436C998.997 216.336 999.497 217.38 999.848 218.568C1000.21 219.747 1000.39 221.011 1000.39 222.361C1000.39 223.711 1000.21 224.98 999.848 226.168C999.497 227.347 998.997 228.387 998.349 229.287C997.71 230.187 996.941 230.893 996.041 231.406C995.141 231.91 994.142 232.162 993.044 232.162ZM993.044 228.868C994.007 228.868 994.803 228.562 995.433 227.95C996.063 227.338 996.531 226.537 996.837 225.547C997.143 224.557 997.296 223.495 997.296 222.361C997.296 221.164 997.134 220.075 996.81 219.094C996.486 218.104 996.009 217.317 995.379 216.732C994.749 216.147 993.971 215.854 993.044 215.854C992.315 215.854 991.68 216.034 991.14 216.394C990.609 216.745 990.168 217.227 989.817 217.839C989.466 218.451 989.205 219.148 989.034 219.931C988.863 220.705 988.778 221.515 988.778 222.361C988.778 223.486 988.931 224.548 989.237 225.547C989.552 226.537 990.024 227.338 990.654 227.95C991.293 228.562 992.09 228.868 993.044 228.868ZM1008.1 232.162C1006.95 232.162 1005.92 231.892 1005 231.352C1004.09 230.812 1003.36 230.088 1002.82 229.179C1002.28 228.261 1002.01 227.244 1002.01 226.128H1005.3C1005.3 226.632 1005.42 227.091 1005.65 227.505C1005.9 227.919 1006.23 228.252 1006.65 228.504C1007.07 228.747 1007.56 228.868 1008.1 228.868C1008.59 228.868 1009.05 228.747 1009.47 228.504C1009.91 228.252 1010.25 227.919 1010.51 227.505C1010.77 227.091 1010.9 226.632 1010.9 226.128C1010.9 225.471 1010.73 224.926 1010.38 224.494C1010.03 224.053 1009.54 223.725 1008.91 223.509C1008.29 223.293 1007.56 223.185 1006.73 223.185V220.647C1007.85 220.647 1008.73 220.435 1009.38 220.012C1010.04 219.589 1010.36 218.968 1010.36 218.149C1010.36 217.726 1010.26 217.339 1010.04 216.988C1009.82 216.637 1009.54 216.358 1009.18 216.151C1008.83 215.935 1008.44 215.827 1008.02 215.827C1007.58 215.827 1007.16 215.935 1006.76 216.151C1006.35 216.358 1006.02 216.637 1005.76 216.988C1005.51 217.339 1005.38 217.726 1005.38 218.149H1002.09C1002.09 217.375 1002.25 216.651 1002.56 215.976C1002.88 215.292 1003.31 214.693 1003.86 214.18C1004.42 213.667 1005.05 213.267 1005.75 212.979C1006.46 212.682 1007.2 212.533 1007.97 212.533C1008.99 212.533 1009.93 212.785 1010.8 213.289C1011.66 213.793 1012.35 214.468 1012.88 215.314C1013.4 216.16 1013.66 217.105 1013.66 218.149C1013.66 218.878 1013.49 219.594 1013.15 220.296C1012.8 220.998 1012.32 221.493 1011.69 221.781C1012.24 221.979 1012.7 222.312 1013.06 222.78C1013.43 223.239 1013.71 223.765 1013.9 224.359C1014.1 224.944 1014.2 225.534 1014.2 226.128C1014.2 227.235 1013.92 228.247 1013.36 229.165C1012.8 230.074 1012.06 230.803 1011.13 231.352C1010.22 231.892 1009.2 232.162 1008.1 232.162Z" fill="white"/>
<path d="M951.758 284.811V265.911H963.611V269.205H955.052V273.039H961.842V276.333H955.052V281.517H963.611V284.811H951.758ZM976.254 271.311H979.548V284.811H976.254L976.106 283.137C975.737 283.74 975.246 284.231 974.634 284.609C974.031 284.978 973.316 285.162 972.488 285.162C971.489 285.162 970.553 284.973 969.68 284.595C968.807 284.217 968.037 283.695 967.371 283.029C966.714 282.363 966.197 281.594 965.819 280.721C965.45 279.848 965.265 278.912 965.265 277.913C965.265 276.95 965.441 276.045 965.792 275.199C966.152 274.353 966.651 273.611 967.29 272.972C967.929 272.333 968.667 271.833 969.504 271.473C970.341 271.113 971.241 270.933 972.204 270.933C973.095 270.933 973.892 271.131 974.594 271.527C975.305 271.923 975.908 272.427 976.403 273.039L976.254 271.311ZM972.407 281.99C973.109 281.99 973.73 281.814 974.27 281.463C974.81 281.112 975.233 280.64 975.539 280.046C975.845 279.443 975.998 278.781 975.998 278.061C975.998 277.332 975.845 276.671 975.539 276.077C975.233 275.474 974.805 274.997 974.256 274.646C973.716 274.295 973.1 274.119 972.407 274.119C971.714 274.119 971.079 274.299 970.503 274.659C969.936 275.01 969.482 275.483 969.14 276.077C968.807 276.671 968.64 277.332 968.64 278.061C968.64 278.79 968.811 279.452 969.153 280.046C969.495 280.64 969.95 281.112 970.517 281.463C971.093 281.814 971.723 281.99 972.407 281.99ZM982.252 284.811L982.238 271.311H985.532L985.546 272.513C986.005 272.027 986.554 271.644 987.193 271.365C987.832 271.077 988.52 270.933 989.258 270.933C989.753 270.933 990.248 271.005 990.743 271.149L989.447 274.47C989.105 274.335 988.763 274.268 988.421 274.268C987.89 274.268 987.404 274.398 986.963 274.659C986.531 274.911 986.185 275.258 985.924 275.699C985.672 276.131 985.546 276.612 985.546 277.143V284.811H982.252ZM1004.68 276.279V284.811H1001.38V277.143C1001.38 276.612 1001.25 276.131 1000.99 275.699C1000.73 275.258 1000.38 274.911 999.938 274.659C999.506 274.398 999.024 274.268 998.493 274.268C997.962 274.268 997.476 274.398 997.035 274.659C996.603 274.911 996.257 275.258 995.996 275.699C995.744 276.131 995.618 276.612 995.618 277.143V284.811H992.324L992.31 271.311H995.604L995.618 272.513C996.077 272.027 996.626 271.644 997.265 271.365C997.904 271.077 998.592 270.933 999.33 270.933C1000.31 270.933 1001.21 271.176 1002.02 271.662C1002.83 272.139 1003.47 272.783 1003.95 273.593C1004.43 274.394 1004.68 275.289 1004.68 276.279ZM1021.03 270.933C1022.35 270.933 1023.55 271.253 1024.63 271.892C1025.71 272.531 1026.56 273.39 1027.2 274.47C1027.84 275.541 1028.16 276.729 1028.16 278.034C1028.16 279.015 1027.98 279.938 1027.61 280.802C1027.24 281.666 1026.73 282.426 1026.07 283.083C1025.42 283.731 1024.67 284.24 1023.8 284.609C1022.95 284.978 1022.02 285.162 1021.03 285.162C1020.19 285.162 1019.44 284.973 1018.78 284.595C1018.13 284.208 1017.59 283.709 1017.15 283.097V284.811H1013.85V264.561H1017.15V272.999C1017.59 272.387 1018.13 271.892 1018.78 271.514C1019.44 271.127 1020.19 270.933 1021.03 270.933ZM1020.99 281.976C1021.7 281.976 1022.33 281.801 1022.9 281.45C1023.47 281.09 1023.93 280.613 1024.27 280.019C1024.62 279.425 1024.79 278.763 1024.79 278.034C1024.79 277.314 1024.62 276.657 1024.27 276.063C1023.93 275.46 1023.47 274.983 1022.9 274.632C1022.32 274.281 1021.69 274.106 1020.99 274.106C1020.31 274.106 1019.7 274.286 1019.16 274.646C1018.62 274.997 1018.19 275.474 1017.89 276.077C1017.58 276.671 1017.43 277.323 1017.43 278.034C1017.43 278.763 1017.58 279.429 1017.89 280.032C1018.19 280.626 1018.62 281.099 1019.16 281.45C1019.7 281.801 1020.31 281.976 1020.99 281.976ZM1038.7 271.311H1042.19L1034.81 291.561H1031.31L1033.76 284.811L1028.9 271.311H1032.5L1035.4 280.302L1038.7 271.311ZM960.328 317.054C959.626 317.009 958.947 316.87 958.29 316.636C957.642 316.393 957.066 316.064 956.562 315.65C956.058 315.236 955.671 314.741 955.401 314.165L958.182 312.977C958.29 313.157 958.465 313.351 958.708 313.558C958.951 313.756 959.239 313.922 959.572 314.057C959.914 314.192 960.288 314.26 960.693 314.26C961.035 314.26 961.359 314.215 961.665 314.125C961.98 314.026 962.232 313.877 962.421 313.679C962.619 313.481 962.718 313.225 962.718 312.91C962.718 312.577 962.601 312.32 962.367 312.14C962.142 311.951 961.854 311.812 961.503 311.722C961.161 311.623 960.828 311.533 960.504 311.452C959.649 311.281 958.852 311.015 958.114 310.655C957.385 310.295 956.796 309.832 956.346 309.265C955.905 308.689 955.684 307.996 955.684 307.186C955.684 306.295 955.918 305.525 956.386 304.877C956.863 304.229 957.48 303.73 958.236 303.379C959.001 303.028 959.824 302.852 960.706 302.852C961.777 302.852 962.758 303.077 963.649 303.527C964.549 303.968 965.26 304.594 965.782 305.404L963.177 306.943C963.051 306.727 962.875 306.529 962.65 306.349C962.425 306.16 962.169 306.007 961.881 305.89C961.593 305.764 961.291 305.692 960.976 305.674C960.571 305.656 960.202 305.692 959.869 305.782C959.536 305.872 959.266 306.025 959.059 306.241C958.861 306.457 958.762 306.745 958.762 307.105C958.762 307.447 958.897 307.703 959.167 307.874C959.437 308.036 959.761 308.162 960.139 308.252C960.526 308.342 960.895 308.441 961.246 308.549C962.038 308.81 962.781 309.13 963.474 309.508C964.176 309.886 964.738 310.349 965.161 310.898C965.584 311.447 965.787 312.104 965.769 312.869C965.769 313.742 965.508 314.507 964.986 315.164C964.464 315.812 963.789 316.307 962.961 316.649C962.142 316.991 961.264 317.126 960.328 317.054ZM980.445 308.279V316.811H977.151V309.143C977.151 308.612 977.021 308.131 976.76 307.699C976.499 307.258 976.148 306.911 975.707 306.659C975.275 306.398 974.793 306.268 974.262 306.268C973.731 306.268 973.245 306.398 972.804 306.659C972.372 306.911 972.026 307.258 971.765 307.699C971.513 308.131 971.387 308.612 971.387 309.143V316.811H968.093L968.079 296.561H971.373L971.387 304.513C971.846 304.027 972.395 303.644 973.034 303.365C973.673 303.077 974.361 302.933 975.099 302.933C976.08 302.933 976.976 303.176 977.786 303.662C978.596 304.139 979.239 304.783 979.716 305.593C980.202 306.394 980.445 307.289 980.445 308.279ZM993.05 303.311H996.344V316.811H993.05L992.902 315.137C992.533 315.74 992.042 316.231 991.43 316.609C990.827 316.978 990.112 317.162 989.284 317.162C988.285 317.162 987.349 316.973 986.476 316.595C985.603 316.217 984.833 315.695 984.167 315.029C983.51 314.363 982.993 313.594 982.615 312.721C982.246 311.848 982.061 310.912 982.061 309.913C982.061 308.95 982.237 308.045 982.588 307.199C982.948 306.353 983.447 305.611 984.086 304.972C984.725 304.333 985.463 303.833 986.3 303.473C987.137 303.113 988.037 302.933 989 302.933C989.891 302.933 990.688 303.131 991.39 303.527C992.101 303.923 992.704 304.427 993.199 305.039L993.05 303.311ZM989.203 313.99C989.905 313.99 990.526 313.814 991.066 313.463C991.606 313.112 992.029 312.64 992.335 312.046C992.641 311.443 992.794 310.781 992.794 310.061C992.794 309.332 992.641 308.671 992.335 308.077C992.029 307.474 991.601 306.997 991.052 306.646C990.512 306.295 989.896 306.119 989.203 306.119C988.51 306.119 987.875 306.299 987.299 306.659C986.732 307.01 986.278 307.483 985.936 308.077C985.603 308.671 985.436 309.332 985.436 310.061C985.436 310.79 985.607 311.452 985.949 312.046C986.291 312.64 986.746 313.112 987.313 313.463C987.889 313.814 988.519 313.99 989.203 313.99ZM999.048 316.811L999.034 303.311H1002.33L1002.34 304.513C1002.8 304.027 1003.35 303.644 1003.99 303.365C1004.63 303.077 1005.32 302.933 1006.05 302.933C1006.55 302.933 1007.04 303.005 1007.54 303.149L1006.24 306.47C1005.9 306.335 1005.56 306.268 1005.22 306.268C1004.69 306.268 1004.2 306.398 1003.76 306.659C1003.33 306.911 1002.98 307.258 1002.72 307.699C1002.47 308.131 1002.34 308.612 1002.34 309.143V316.811H999.048ZM1009 303.311H1012.29V316.811H1009V303.311ZM1010.67 301.57C1010.19 301.57 1009.78 301.412 1009.45 301.097C1009.11 300.773 1008.95 300.368 1008.95 299.882C1008.95 299.405 1009.11 299.005 1009.45 298.681C1009.78 298.357 1010.18 298.195 1010.66 298.195C1011.14 298.195 1011.54 298.357 1011.86 298.681C1012.2 299.005 1012.36 299.405 1012.36 299.882C1012.36 300.368 1012.2 300.773 1011.88 301.097C1011.55 301.412 1011.15 301.57 1010.67 301.57ZM1027.8 308.279V316.811H1024.51V309.143C1024.51 308.612 1024.38 308.131 1024.11 307.699C1023.85 307.258 1023.5 306.911 1023.06 306.659C1022.63 306.398 1022.15 306.268 1021.62 306.268C1021.09 306.268 1020.6 306.398 1020.16 306.659C1019.73 306.911 1019.38 307.258 1019.12 307.699C1018.87 308.131 1018.74 308.612 1018.74 309.143V316.811H1015.45L1015.43 303.311H1018.73L1018.74 304.513C1019.2 304.027 1019.75 303.644 1020.39 303.365C1021.03 303.077 1021.72 302.933 1022.45 302.933C1023.44 302.933 1024.33 303.176 1025.14 303.662C1025.95 304.139 1026.59 304.783 1027.07 305.593C1027.56 306.394 1027.8 307.289 1027.8 308.279ZM1040.24 303.311H1043.54V317.068C1043.54 318.04 1043.34 318.922 1042.94 319.714C1042.55 320.515 1042.01 321.199 1041.32 321.766C1040.64 322.342 1039.86 322.783 1038.97 323.089C1038.09 323.404 1037.17 323.561 1036.19 323.561C1035.25 323.561 1034.34 323.368 1033.47 322.981C1032.59 322.594 1031.82 322.063 1031.14 321.388C1030.48 320.722 1029.97 319.961 1029.62 319.106L1032.63 317.743C1032.81 318.238 1033.08 318.67 1033.44 319.039C1033.81 319.417 1034.23 319.709 1034.71 319.916C1035.19 320.132 1035.68 320.24 1036.19 320.24C1036.72 320.24 1037.21 320.168 1037.69 320.024C1038.18 319.88 1038.61 319.669 1039 319.39C1039.39 319.12 1039.69 318.787 1039.91 318.391C1040.13 318.004 1040.24 317.563 1040.24 317.068V315.164C1039.82 315.758 1039.29 316.24 1038.65 316.609C1038.01 316.978 1037.27 317.162 1036.44 317.162C1035.46 317.162 1034.56 316.978 1033.71 316.609C1032.86 316.24 1032.12 315.731 1031.47 315.083C1030.83 314.426 1030.33 313.67 1029.96 312.815C1029.6 311.96 1029.42 311.042 1029.42 310.061C1029.42 309.08 1029.6 308.162 1029.96 307.307C1030.33 306.452 1030.83 305.701 1031.47 305.053C1032.12 304.396 1032.86 303.883 1033.71 303.514C1034.56 303.145 1035.46 302.96 1036.44 302.96C1037.27 302.96 1038.01 303.145 1038.65 303.514C1039.29 303.874 1039.82 304.351 1040.24 304.945V303.311ZM1036.48 313.99C1037.17 313.99 1037.78 313.814 1038.31 313.463C1038.85 313.103 1039.28 312.626 1039.58 312.032C1039.89 311.429 1040.04 310.772 1040.04 310.061C1040.04 309.341 1039.88 308.684 1039.57 308.09C1039.26 307.496 1038.84 307.019 1038.3 306.659C1037.77 306.299 1037.16 306.119 1036.48 306.119C1035.8 306.119 1035.19 306.299 1034.63 306.659C1034.07 307.01 1033.62 307.483 1033.29 308.077C1032.96 308.671 1032.79 309.332 1032.79 310.061C1032.79 310.79 1032.96 311.452 1033.29 312.046C1033.62 312.64 1034.07 313.112 1034.63 313.463C1035.19 313.814 1035.8 313.99 1036.48 313.99Z" fill="white"/>
<g clip-path="url(#clip2_5125_2906)">
<path d="M615.945 214H631.945C634.067 214 636.102 214.843 637.602 216.343C639.102 217.843 639.945 219.878 639.945 222C639.945 224.122 639.102 226.157 637.602 227.657C636.102 229.157 634.067 230 631.945 230H615.945L599.945 258H587.945L595.945 230H579.945L571.945 238H559.945L567.945 222L559.945 206H571.945L579.945 214H595.945L587.945 186H599.945L615.945 214Z" fill="white"/>
</g>
<path d="M592.24 323.351C591.142 323.351 590.143 323.099 589.243 322.595C588.343 322.082 587.564 321.375 586.907 320.475C586.259 319.575 585.76 318.536 585.409 317.357C585.058 316.169 584.882 314.9 584.882 313.55C584.882 312.2 585.058 310.935 585.409 309.756C585.76 308.568 586.259 307.524 586.907 306.624C587.564 305.724 588.343 305.022 589.243 304.518C590.143 304.005 591.142 303.749 592.24 303.749C593.338 303.749 594.337 304.005 595.237 304.518C596.137 305.022 596.906 305.724 597.545 306.624C598.193 307.524 598.693 308.568 599.044 309.756C599.404 310.935 599.584 312.2 599.584 313.55C599.584 314.9 599.404 316.169 599.044 317.357C598.693 318.536 598.193 319.575 597.545 320.475C596.906 321.375 596.137 322.082 595.237 322.595C594.337 323.099 593.338 323.351 592.24 323.351ZM592.24 320.057C593.203 320.057 593.999 319.751 594.629 319.139C595.259 318.527 595.727 317.726 596.033 316.736C596.339 315.746 596.492 314.684 596.492 313.55C596.492 312.353 596.33 311.264 596.006 310.283C595.682 309.293 595.205 308.505 594.575 307.92C593.945 307.335 593.167 307.043 592.24 307.043C591.511 307.043 590.876 307.223 590.336 307.583C589.805 307.934 589.364 308.415 589.013 309.027C588.662 309.639 588.401 310.337 588.23 311.12C588.059 311.894 587.974 312.704 587.974 313.55C587.974 314.675 588.127 315.737 588.433 316.736C588.748 317.726 589.22 318.527 589.85 319.139C590.489 319.751 591.286 320.057 592.24 320.057ZM601.474 323V320.057C602.059 319.616 602.752 319.071 603.553 318.423C604.354 317.766 605.177 317.06 606.023 316.304C606.869 315.539 607.652 314.774 608.372 314.009C609.092 313.244 609.677 312.515 610.127 311.822C610.586 311.129 610.816 310.535 610.816 310.04C610.816 309.491 610.681 308.991 610.411 308.541C610.141 308.082 609.781 307.718 609.331 307.448C608.89 307.178 608.395 307.043 607.846 307.043C607.297 307.043 606.797 307.178 606.347 307.448C605.897 307.718 605.537 308.082 605.267 308.541C604.997 308.991 604.862 309.491 604.862 310.04H601.568C601.568 308.852 601.856 307.785 602.432 306.84C603.008 305.886 603.769 305.135 604.714 304.586C605.668 304.028 606.712 303.749 607.846 303.749C608.998 303.749 610.046 304.032 610.991 304.599C611.936 305.157 612.692 305.913 613.259 306.867C613.826 307.821 614.11 308.879 614.11 310.04C614.11 310.652 613.997 311.268 613.772 311.889C613.547 312.51 613.232 313.136 612.827 313.766C612.422 314.396 611.945 315.035 611.396 315.683C610.847 316.322 610.24 316.979 609.574 317.654C608.917 318.32 608.224 319.004 607.495 319.706H614.204V323H601.474Z" fill="white"/>
<path d="M535.668 376.351C534.39 376.351 533.188 376.099 532.063 375.595C530.938 375.082 529.948 374.375 529.093 373.475C528.247 372.575 527.581 371.536 527.095 370.357C526.618 369.169 526.38 367.9 526.38 366.55C526.38 365.191 526.618 363.922 527.095 362.743C527.581 361.555 528.247 360.515 529.093 359.624C529.948 358.724 530.938 358.022 532.063 357.518C533.188 357.005 534.39 356.749 535.668 356.749C537.198 356.749 538.606 357.104 539.893 357.815C541.18 358.517 542.247 359.458 543.093 360.637L540.15 362.216C539.619 361.559 538.957 361.033 538.165 360.637C537.382 360.241 536.55 360.043 535.668 360.043C534.84 360.043 534.061 360.214 533.332 360.556C532.603 360.889 531.964 361.357 531.415 361.96C530.866 362.554 530.439 363.247 530.133 364.039C529.827 364.822 529.674 365.659 529.674 366.55C529.674 367.45 529.827 368.291 530.133 369.074C530.448 369.857 530.88 370.55 531.429 371.153C531.978 371.747 532.612 372.215 533.332 372.557C534.061 372.89 534.84 373.057 535.668 373.057C536.568 373.057 537.405 372.859 538.179 372.463C538.962 372.058 539.619 371.527 540.15 370.87L543.093 372.463C542.247 373.633 541.18 374.573 539.893 375.284C538.606 375.995 537.198 376.351 535.668 376.351ZM550.869 376.351C549.627 376.351 548.493 376.031 547.467 375.392C546.45 374.753 545.635 373.898 545.023 372.827C544.42 371.747 544.119 370.555 544.119 369.25C544.119 368.26 544.294 367.337 544.645 366.482C544.996 365.618 545.478 364.862 546.09 364.214C546.711 363.557 547.431 363.044 548.25 362.675C549.069 362.306 549.942 362.122 550.869 362.122C552.111 362.122 553.24 362.441 554.257 363.08C555.283 363.719 556.098 364.579 556.701 365.659C557.313 366.739 557.619 367.936 557.619 369.25C557.619 370.231 557.443 371.149 557.092 372.004C556.741 372.859 556.255 373.615 555.634 374.272C555.022 374.92 554.307 375.428 553.488 375.797C552.678 376.167 551.805 376.351 550.869 376.351ZM550.869 373.057C551.526 373.057 552.115 372.881 552.637 372.531C553.159 372.179 553.569 371.716 553.866 371.14C554.172 370.564 554.325 369.934 554.325 369.25C554.325 368.548 554.167 367.909 553.852 367.333C553.546 366.748 553.128 366.284 552.597 365.942C552.075 365.591 551.499 365.416 550.869 365.416C550.221 365.416 549.636 365.591 549.114 365.942C548.592 366.293 548.178 366.761 547.872 367.346C547.566 367.931 547.413 368.566 547.413 369.25C547.413 369.961 547.57 370.604 547.885 371.18C548.2 371.756 548.619 372.215 549.141 372.557C549.672 372.89 550.248 373.057 550.869 373.057ZM572.087 367.468V376H568.793V368.332C568.793 367.801 568.662 367.319 568.401 366.887C568.14 366.446 567.789 366.1 567.348 365.848C566.916 365.587 566.435 365.456 565.904 365.456C565.373 365.456 564.887 365.587 564.446 365.848C564.014 366.1 563.667 366.446 563.406 366.887C563.154 367.319 563.028 367.801 563.028 368.332V376H559.734L559.721 362.5H563.015L563.028 363.701C563.487 363.215 564.036 362.833 564.675 362.554C565.314 362.266 566.003 362.122 566.741 362.122C567.722 362.122 568.617 362.365 569.427 362.851C570.237 363.328 570.881 363.971 571.358 364.781C571.844 365.582 572.087 366.478 572.087 367.468ZM582.526 376H578.274L573.36 362.486H576.87L580.407 372.206L583.93 362.486H587.44L582.526 376ZM594.849 376.351C593.607 376.351 592.473 376.031 591.447 375.392C590.43 374.753 589.616 373.894 589.004 372.814C588.401 371.734 588.099 370.541 588.099 369.236C588.099 368.255 588.275 367.337 588.626 366.482C588.977 365.618 589.458 364.862 590.07 364.214C590.691 363.557 591.411 363.044 592.23 362.675C593.049 362.306 593.922 362.122 594.849 362.122C595.902 362.122 596.865 362.347 597.738 362.797C598.62 363.238 599.367 363.845 599.979 364.619C600.591 365.393 601.037 366.275 601.316 367.265C601.595 368.255 601.658 369.29 601.505 370.37H591.636C591.762 370.874 591.969 371.329 592.257 371.734C592.545 372.13 592.91 372.449 593.351 372.692C593.792 372.926 594.291 373.048 594.849 373.057C595.425 373.066 595.947 372.931 596.415 372.652C596.892 372.364 597.288 371.977 597.603 371.491L600.965 372.274C600.416 373.471 599.597 374.452 598.508 375.217C597.419 375.973 596.199 376.351 594.849 376.351ZM591.528 367.9H598.17C598.071 367.36 597.86 366.874 597.536 366.442C597.221 366.001 596.829 365.65 596.361 365.389C595.893 365.128 595.389 364.997 594.849 364.997C594.309 364.997 593.81 365.128 593.351 365.389C592.892 365.641 592.5 365.987 592.176 366.428C591.861 366.86 591.645 367.351 591.528 367.9ZM603.715 376L603.701 362.5H606.995L607.009 363.701C607.468 363.215 608.017 362.833 608.656 362.554C609.295 362.266 609.983 362.122 610.721 362.122C611.216 362.122 611.711 362.194 612.206 362.338L610.91 365.659C610.568 365.524 610.226 365.456 609.884 365.456C609.353 365.456 608.867 365.587 608.426 365.848C607.994 366.1 607.648 366.446 607.387 366.887C607.135 367.319 607.009 367.801 607.009 368.332V376H603.715ZM621.326 365.794H618.707V376H615.413V365.794H613.415V362.5H615.413V358.261H618.707V362.5H621.326V365.794ZM630.253 362.5H633.547V376H630.253V362.5ZM631.927 360.758C631.441 360.758 631.031 360.601 630.698 360.286C630.365 359.962 630.199 359.557 630.199 359.071C630.199 358.594 630.365 358.193 630.698 357.869C631.031 357.545 631.436 357.383 631.913 357.383C632.39 357.383 632.791 357.545 633.115 357.869C633.448 358.193 633.614 358.594 633.614 359.071C633.614 359.557 633.452 359.962 633.128 360.286C632.804 360.601 632.404 360.758 631.927 360.758ZM649.052 367.468V376H645.758V368.332C645.758 367.801 645.628 367.319 645.367 366.887C645.106 366.446 644.755 366.1 644.314 365.848C643.882 365.587 643.4 365.456 642.869 365.456C642.338 365.456 641.852 365.587 641.411 365.848C640.979 366.1 640.633 366.446 640.372 366.887C640.12 367.319 639.994 367.801 639.994 368.332V376H636.7L636.686 362.5H639.98L639.994 363.701C640.453 363.215 641.002 362.833 641.641 362.554C642.28 362.266 642.968 362.122 643.706 362.122C644.687 362.122 645.583 362.365 646.393 362.851C647.203 363.328 647.846 363.971 648.323 364.781C648.809 365.582 649.052 366.478 649.052 367.468ZM658.978 365.794H656.359V376H653.065V365.794H651.067V362.5H653.065V358.261H656.359V362.5H658.978V365.794ZM667.042 376.351C665.8 376.351 664.666 376.031 663.64 375.392C662.623 374.753 661.809 373.898 661.197 372.827C660.594 371.747 660.292 370.555 660.292 369.25C660.292 368.26 660.468 367.337 660.819 366.482C661.17 365.618 661.651 364.862 662.263 364.214C662.884 363.557 663.604 363.044 664.423 362.675C665.242 362.306 666.115 362.122 667.042 362.122C668.284 362.122 669.414 362.441 670.431 363.08C671.457 363.719 672.271 364.579 672.874 365.659C673.486 366.739 673.792 367.936 673.792 369.25C673.792 370.231 673.617 371.149 673.266 372.004C672.915 372.859 672.429 373.615 671.808 374.272C671.196 374.92 670.48 375.428 669.661 375.797C668.851 376.167 667.978 376.351 667.042 376.351ZM667.042 373.057C667.699 373.057 668.289 372.881 668.811 372.531C669.333 372.179 669.742 371.716 670.039 371.14C670.345 370.564 670.498 369.934 670.498 369.25C670.498 368.548 670.341 367.909 670.026 367.333C669.72 366.748 669.301 366.284 668.77 365.942C668.248 365.591 667.672 365.416 667.042 365.416C666.394 365.416 665.809 365.591 665.287 365.942C664.765 366.293 664.351 366.761 664.045 367.346C663.739 367.931 663.586 368.566 663.586 369.25C663.586 369.961 663.744 370.604 664.059 371.18C664.374 371.756 664.792 372.215 665.314 372.557C665.845 372.89 666.421 373.057 667.042 373.057ZM522.812 389.1V392.394H517.034V408H513.74V392.394H507.962V389.1H522.812ZM523.756 408L523.743 394.5H527.037L527.05 395.701C527.509 395.215 528.058 394.833 528.697 394.554C529.336 394.266 530.025 394.122 530.763 394.122C531.258 394.122 531.753 394.194 532.248 394.338L530.952 397.659C530.61 397.524 530.268 397.456 529.926 397.456C529.395 397.456 528.909 397.587 528.468 397.848C528.036 398.1 527.689 398.446 527.428 398.887C527.176 399.319 527.05 399.801 527.05 400.332V408H523.756ZM543.308 394.5H546.602V408H543.308L543.16 406.326C542.791 406.929 542.3 407.419 541.688 407.797C541.085 408.167 540.37 408.351 539.542 408.351C538.543 408.351 537.607 408.162 536.734 407.784C535.861 407.406 535.091 406.884 534.425 406.218C533.768 405.552 533.251 404.782 532.873 403.909C532.504 403.036 532.319 402.1 532.319 401.101C532.319 400.138 532.495 399.234 532.846 398.388C533.206 397.542 533.705 396.799 534.344 396.16C534.983 395.521 535.721 395.022 536.558 394.662C537.395 394.302 538.295 394.122 539.258 394.122C540.149 394.122 540.946 394.32 541.648 394.716C542.359 395.112 542.962 395.616 543.457 396.228L543.308 394.5ZM539.461 405.178C540.163 405.178 540.784 405.003 541.324 404.652C541.864 404.301 542.287 403.828 542.593 403.234C542.899 402.631 543.052 401.97 543.052 401.25C543.052 400.521 542.899 399.859 542.593 399.265C542.287 398.662 541.859 398.185 541.31 397.834C540.77 397.483 540.154 397.308 539.461 397.308C538.768 397.308 538.133 397.488 537.557 397.848C536.99 398.199 536.536 398.671 536.194 399.265C535.861 399.859 535.694 400.521 535.694 401.25C535.694 401.979 535.865 402.64 536.207 403.234C536.549 403.828 537.004 404.301 537.571 404.652C538.147 405.003 538.777 405.178 539.461 405.178ZM557.042 408H552.79L547.876 394.486H551.386L554.923 404.206L558.446 394.486H561.956L557.042 408ZM569.365 408.351C568.123 408.351 566.989 408.031 565.963 407.392C564.946 406.753 564.132 405.894 563.52 404.814C562.917 403.734 562.615 402.541 562.615 401.236C562.615 400.255 562.791 399.337 563.142 398.482C563.493 397.618 563.974 396.862 564.586 396.214C565.207 395.557 565.927 395.044 566.746 394.675C567.565 394.306 568.438 394.122 569.365 394.122C570.418 394.122 571.381 394.347 572.254 394.797C573.136 395.238 573.883 395.845 574.495 396.619C575.107 397.393 575.553 398.275 575.832 399.265C576.111 400.255 576.174 401.29 576.021 402.37H566.152C566.278 402.874 566.485 403.329 566.773 403.734C567.061 404.13 567.426 404.449 567.867 404.692C568.308 404.926 568.807 405.048 569.365 405.057C569.941 405.066 570.463 404.931 570.931 404.652C571.408 404.364 571.804 403.977 572.119 403.491L575.481 404.274C574.932 405.471 574.113 406.452 573.024 407.217C571.935 407.973 570.715 408.351 569.365 408.351ZM566.044 399.9H572.686C572.587 399.36 572.376 398.874 572.052 398.442C571.737 398.001 571.345 397.65 570.877 397.389C570.409 397.128 569.905 396.997 569.365 396.997C568.825 396.997 568.326 397.128 567.867 397.389C567.408 397.641 567.016 397.987 566.692 398.428C566.377 398.86 566.161 399.351 566.044 399.9ZM578.006 408V387.75H581.3V408H578.006ZM591.032 408V389.1H597.782C598.808 389.1 599.735 389.356 600.563 389.869C601.4 390.382 602.061 391.071 602.547 391.935C603.033 392.799 603.276 393.748 603.276 394.783C603.276 395.845 603.024 396.808 602.52 397.672C602.025 398.527 601.359 399.211 600.522 399.724C599.685 400.228 598.772 400.48 597.782 400.48H594.326V408H591.032ZM594.326 397.186H597.431C597.899 397.186 598.326 397.069 598.713 396.835C599.1 396.601 599.406 396.286 599.631 395.89C599.865 395.494 599.982 395.053 599.982 394.567C599.982 394.072 599.865 393.627 599.631 393.231C599.406 392.835 599.1 392.52 598.713 392.286C598.326 392.052 597.899 391.935 597.431 391.935H594.326V397.186ZM615.001 394.5H618.295V408H615.001L614.852 406.326C614.483 406.929 613.993 407.419 613.381 407.797C612.778 408.167 612.062 408.351 611.234 408.351C610.235 408.351 609.299 408.162 608.426 407.784C607.553 407.406 606.784 406.884 606.118 406.218C605.461 405.552 604.943 404.782 604.565 403.909C604.196 403.036 604.012 402.1 604.012 401.101C604.012 400.138 604.187 399.234 604.538 398.388C604.898 397.542 605.398 396.799 606.037 396.16C606.676 395.521 607.414 395.022 608.251 394.662C609.088 394.302 609.988 394.122 610.951 394.122C611.842 394.122 612.638 394.32 613.34 394.716C614.051 395.112 614.654 395.616 615.149 396.228L615.001 394.5ZM611.153 405.178C611.855 405.178 612.476 405.003 613.016 404.652C613.556 404.301 613.979 403.828 614.285 403.234C614.591 402.631 614.744 401.97 614.744 401.25C614.744 400.521 614.591 399.859 614.285 399.265C613.979 398.662 613.552 398.185 613.003 397.834C612.463 397.483 611.846 397.308 611.153 397.308C610.46 397.308 609.826 397.488 609.25 397.848C608.683 398.199 608.228 398.671 607.886 399.265C607.553 399.859 607.387 400.521 607.387 401.25C607.387 401.979 607.558 402.64 607.9 403.234C608.242 403.828 608.696 404.301 609.263 404.652C609.839 405.003 610.469 405.178 611.153 405.178ZM629.091 403.936L632.061 405.543C631.44 406.389 630.662 407.068 629.726 407.581C628.79 408.094 627.768 408.351 626.661 408.351C625.419 408.351 624.285 408.031 623.259 407.392C622.242 406.753 621.428 405.898 620.816 404.827C620.213 403.747 619.911 402.555 619.911 401.25C619.911 400.26 620.087 399.337 620.438 398.482C620.789 397.618 621.27 396.862 621.882 396.214C622.503 395.557 623.223 395.044 624.042 394.675C624.861 394.306 625.734 394.122 626.661 394.122C627.768 394.122 628.79 394.378 629.726 394.891C630.662 395.404 631.44 396.093 632.061 396.957L629.091 398.55C628.776 398.19 628.403 397.911 627.971 397.713C627.548 397.515 627.111 397.416 626.661 397.416C626.013 397.416 625.428 397.596 624.906 397.956C624.384 398.307 623.97 398.775 623.664 399.36C623.358 399.936 623.205 400.566 623.205 401.25C623.205 401.925 623.358 402.555 623.664 403.14C623.97 403.716 624.384 404.179 624.906 404.531C625.428 404.881 626.013 405.057 626.661 405.057C627.129 405.057 627.575 404.958 627.998 404.76C628.421 404.553 628.785 404.278 629.091 403.936ZM646.118 408H642.325L639.247 402.694L637.357 404.949V408H634.063V387.75H637.357V399.832L641.825 394.5H646.132L641.501 400.021L646.118 408ZM657.557 394.5H660.851V408H657.557L657.409 406.326C657.04 406.929 656.549 407.419 655.937 407.797C655.334 408.167 654.619 408.351 653.791 408.351C652.792 408.351 651.856 408.162 650.983 407.784C650.11 407.406 649.34 406.884 648.674 406.218C648.017 405.552 647.5 404.782 647.122 403.909C646.753 403.036 646.568 402.1 646.568 401.101C646.568 400.138 646.744 399.234 647.095 398.388C647.455 397.542 647.954 396.799 648.593 396.16C649.232 395.521 649.97 395.022 650.807 394.662C651.644 394.302 652.544 394.122 653.507 394.122C654.398 394.122 655.195 394.32 655.897 394.716C656.608 395.112 657.211 395.616 657.706 396.228L657.557 394.5ZM653.71 405.178C654.412 405.178 655.033 405.003 655.573 404.652C656.113 404.301 656.536 403.828 656.842 403.234C657.148 402.631 657.301 401.97 657.301 401.25C657.301 400.521 657.148 399.859 656.842 399.265C656.536 398.662 656.108 398.185 655.559 397.834C655.019 397.483 654.403 397.308 653.71 397.308C653.017 397.308 652.382 397.488 651.806 397.848C651.239 398.199 650.785 398.671 650.443 399.265C650.11 399.859 649.943 400.521 649.943 401.25C649.943 401.979 650.114 402.64 650.456 403.234C650.798 403.828 651.253 404.301 651.82 404.652C652.396 405.003 653.026 405.178 653.71 405.178ZM673.295 394.5H676.589V408.257C676.589 409.229 676.391 410.111 675.995 410.903C675.599 411.704 675.059 412.388 674.375 412.955C673.691 413.531 672.908 413.972 672.026 414.278C671.144 414.593 670.217 414.75 669.245 414.75C668.3 414.75 667.391 414.557 666.518 414.17C665.645 413.783 664.871 413.252 664.196 412.577C663.53 411.911 663.021 411.15 662.67 410.295L665.681 408.932C665.861 409.427 666.131 409.859 666.491 410.228C666.86 410.606 667.283 410.898 667.76 411.105C668.237 411.321 668.732 411.429 669.245 411.429C669.767 411.429 670.266 411.357 670.743 411.213C671.229 411.069 671.666 410.858 672.053 410.579C672.44 410.309 672.741 409.976 672.957 409.58C673.182 409.193 673.295 408.752 673.295 408.257V406.353C672.872 406.947 672.341 407.428 671.702 407.797C671.063 408.167 670.325 408.351 669.488 408.351C668.516 408.351 667.607 408.167 666.761 407.797C665.915 407.428 665.168 406.92 664.52 406.272C663.881 405.615 663.377 404.859 663.008 404.004C662.648 403.149 662.468 402.231 662.468 401.25C662.468 400.269 662.648 399.351 663.008 398.496C663.377 397.641 663.881 396.889 664.52 396.241C665.168 395.584 665.915 395.071 666.761 394.702C667.607 394.333 668.516 394.149 669.488 394.149C670.325 394.149 671.063 394.333 671.702 394.702C672.341 395.062 672.872 395.539 673.295 396.133V394.5ZM669.528 405.178C670.221 405.178 670.833 405.003 671.364 404.652C671.904 404.292 672.327 403.815 672.633 403.221C672.939 402.618 673.092 401.961 673.092 401.25C673.092 400.53 672.935 399.873 672.62 399.279C672.314 398.685 671.891 398.208 671.351 397.848C670.82 397.488 670.212 397.308 669.528 397.308C668.853 397.308 668.237 397.488 667.679 397.848C667.121 398.199 666.675 398.671 666.342 399.265C666.009 399.859 665.843 400.521 665.843 401.25C665.843 401.979 666.009 402.64 666.342 403.234C666.675 403.828 667.121 404.301 667.679 404.652C668.237 405.003 668.853 405.178 669.528 405.178ZM685.46 408.351C684.218 408.351 683.084 408.031 682.058 407.392C681.041 406.753 680.226 405.894 679.614 404.814C679.011 403.734 678.71 402.541 678.71 401.236C678.71 400.255 678.885 399.337 679.236 398.482C679.587 397.618 680.069 396.862 680.681 396.214C681.302 395.557 682.022 395.044 682.841 394.675C683.66 394.306 684.533 394.122 685.46 394.122C686.513 394.122 687.476 394.347 688.349 394.797C689.231 395.238 689.978 395.845 690.59 396.619C691.202 397.393 691.647 398.275 691.926 399.265C692.205 400.255 692.268 401.29 692.115 402.37H682.247C682.373 402.874 682.58 403.329 682.868 403.734C683.156 404.13 683.52 404.449 683.961 404.692C684.402 404.926 684.902 405.048 685.46 405.057C686.036 405.066 686.558 404.931 687.026 404.652C687.503 404.364 687.899 403.977 688.214 403.491L691.575 404.274C691.026 405.471 690.207 406.452 689.118 407.217C688.029 407.973 686.81 408.351 685.46 408.351ZM682.139 399.9H688.781C688.682 399.36 688.47 398.874 688.146 398.442C687.831 398.001 687.44 397.65 686.972 397.389C686.504 397.128 686 396.997 685.46 396.997C684.92 396.997 684.42 397.128 683.961 397.389C683.502 397.641 683.111 397.987 682.787 398.428C682.472 398.86 682.256 399.351 682.139 399.9Z" fill="white"/>
<defs>
<clipPath id="clip0_5125_2906">
<rect width="96" height="96" fill="white" transform="translate(176.574 68) rotate(24.8619)"/>
</clipPath>
<clipPath id="clip1_5125_2906">
<rect width="96" height="96" fill="white" transform="translate(936.54 107.163) rotate(-24.0756)"/>
</clipPath>
<clipPath id="clip2_5125_2906">
<rect width="96" height="96" fill="white" transform="translate(551.945 174)"/>
</clipPath>
</defs>
</svg>
